<mxfile host="app.diagrams.net" agent="Mozilla/5.0 (Windows NT 10.0; Win64; x64; rv:141.0) Gecko/20100101 Firefox/141.0" version="28.0.7">
  <diagram id="R2lEEEUBdFMjLlhIrx00" name="Page-1">
    <mxGraphModel dx="1797" dy="702" grid="1" gridSize="10" guides="1" tooltips="1" connect="1" arrows="1" fold="1" page="1" pageScale="1" pageWidth="850" pageHeight="1100" math="0" shadow="0" extFonts="Permanent Marker^https://fonts.googleapis.com/css?family=Permanent+Marker">
      <root>
        <mxCell id="0" />
        <mxCell id="1" parent="0" />
        <mxCell id="snmXj4P5MIi6Ag2bhf1i-137" value="User" style="rounded=1;arcSize=10;whiteSpace=wrap;html=1;align=center;" vertex="1" parent="1">
          <mxGeometry x="170" y="160" width="100" height="40" as="geometry" />
        </mxCell>
        <mxCell id="snmXj4P5MIi6Ag2bhf1i-143" style="edgeStyle=orthogonalEdgeStyle;rounded=0;orthogonalLoop=1;jettySize=auto;html=1;exitX=1;exitY=0.5;exitDx=0;exitDy=0;entryX=0;entryY=0.5;entryDx=0;entryDy=0;" edge="1" parent="1" source="snmXj4P5MIi6Ag2bhf1i-138" target="snmXj4P5MIi6Ag2bhf1i-137">
          <mxGeometry relative="1" as="geometry" />
        </mxCell>
        <mxCell id="snmXj4P5MIi6Ag2bhf1i-138" value="&lt;u&gt;user_id&lt;/u&gt;" style="ellipse;whiteSpace=wrap;html=1;align=center;" vertex="1" parent="1">
          <mxGeometry x="10" y="40" width="100" height="40" as="geometry" />
        </mxCell>
        <mxCell id="snmXj4P5MIi6Ag2bhf1i-144" style="edgeStyle=orthogonalEdgeStyle;rounded=0;orthogonalLoop=1;jettySize=auto;html=1;exitX=1;exitY=0.5;exitDx=0;exitDy=0;entryX=0;entryY=0.5;entryDx=0;entryDy=0;" edge="1" parent="1" source="snmXj4P5MIi6Ag2bhf1i-139" target="snmXj4P5MIi6Ag2bhf1i-137">
          <mxGeometry relative="1" as="geometry" />
        </mxCell>
        <mxCell id="snmXj4P5MIi6Ag2bhf1i-139" value="Name" style="ellipse;whiteSpace=wrap;html=1;align=center;" vertex="1" parent="1">
          <mxGeometry x="10" y="100" width="100" height="40" as="geometry" />
        </mxCell>
        <mxCell id="snmXj4P5MIi6Ag2bhf1i-145" style="edgeStyle=orthogonalEdgeStyle;rounded=0;orthogonalLoop=1;jettySize=auto;html=1;exitX=1;exitY=0.5;exitDx=0;exitDy=0;" edge="1" parent="1" source="snmXj4P5MIi6Ag2bhf1i-140">
          <mxGeometry relative="1" as="geometry">
            <mxPoint x="170" y="179.66666666666674" as="targetPoint" />
          </mxGeometry>
        </mxCell>
        <mxCell id="snmXj4P5MIi6Ag2bhf1i-140" value="email" style="ellipse;whiteSpace=wrap;html=1;align=center;" vertex="1" parent="1">
          <mxGeometry x="10" y="160" width="100" height="40" as="geometry" />
        </mxCell>
        <mxCell id="snmXj4P5MIi6Ag2bhf1i-146" style="edgeStyle=orthogonalEdgeStyle;rounded=0;orthogonalLoop=1;jettySize=auto;html=1;exitX=1;exitY=0.5;exitDx=0;exitDy=0;entryX=0;entryY=0.5;entryDx=0;entryDy=0;" edge="1" parent="1" source="snmXj4P5MIi6Ag2bhf1i-141" target="snmXj4P5MIi6Ag2bhf1i-137">
          <mxGeometry relative="1" as="geometry" />
        </mxCell>
        <mxCell id="snmXj4P5MIi6Ag2bhf1i-141" value="&lt;div&gt;address&lt;/div&gt;" style="ellipse;whiteSpace=wrap;html=1;align=center;" vertex="1" parent="1">
          <mxGeometry x="10" y="220" width="100" height="40" as="geometry" />
        </mxCell>
        <mxCell id="snmXj4P5MIi6Ag2bhf1i-147" style="edgeStyle=orthogonalEdgeStyle;rounded=0;orthogonalLoop=1;jettySize=auto;html=1;exitX=1;exitY=0.5;exitDx=0;exitDy=0;entryX=0;entryY=0.5;entryDx=0;entryDy=0;" edge="1" parent="1" source="snmXj4P5MIi6Ag2bhf1i-142" target="snmXj4P5MIi6Ag2bhf1i-137">
          <mxGeometry relative="1" as="geometry" />
        </mxCell>
        <mxCell id="snmXj4P5MIi6Ag2bhf1i-142" value="date_joined" style="ellipse;whiteSpace=wrap;html=1;align=center;" vertex="1" parent="1">
          <mxGeometry x="10" y="280" width="100" height="40" as="geometry" />
        </mxCell>
        <mxCell id="snmXj4P5MIi6Ag2bhf1i-162" style="edgeStyle=orthogonalEdgeStyle;rounded=0;orthogonalLoop=1;jettySize=auto;html=1;exitX=0;exitY=0.5;exitDx=0;exitDy=0;entryX=1;entryY=0;entryDx=0;entryDy=0;endArrow=none;endFill=0;" edge="1" parent="1" source="snmXj4P5MIi6Ag2bhf1i-148" target="snmXj4P5MIi6Ag2bhf1i-160">
          <mxGeometry relative="1" as="geometry">
            <Array as="points">
              <mxPoint x="530" y="180" />
              <mxPoint x="530" y="240" />
              <mxPoint x="250" y="240" />
              <mxPoint x="250" y="430" />
              <mxPoint x="62" y="430" />
            </Array>
          </mxGeometry>
        </mxCell>
        <mxCell id="snmXj4P5MIi6Ag2bhf1i-173" style="edgeStyle=orthogonalEdgeStyle;rounded=0;orthogonalLoop=1;jettySize=auto;html=1;exitX=0;exitY=1;exitDx=0;exitDy=0;entryX=1;entryY=0;entryDx=0;entryDy=0;endArrow=none;endFill=0;" edge="1" parent="1" source="snmXj4P5MIi6Ag2bhf1i-148" target="snmXj4P5MIi6Ag2bhf1i-171">
          <mxGeometry relative="1" as="geometry" />
        </mxCell>
        <mxCell id="snmXj4P5MIi6Ag2bhf1i-148" value="Stocks" style="rounded=1;arcSize=10;whiteSpace=wrap;html=1;align=center;" vertex="1" parent="1">
          <mxGeometry x="560" y="160" width="100" height="40" as="geometry" />
        </mxCell>
        <mxCell id="snmXj4P5MIi6Ag2bhf1i-155" style="edgeStyle=orthogonalEdgeStyle;rounded=0;orthogonalLoop=1;jettySize=auto;html=1;exitX=0;exitY=0.5;exitDx=0;exitDy=0;entryX=1;entryY=0.5;entryDx=0;entryDy=0;" edge="1" parent="1" source="snmXj4P5MIi6Ag2bhf1i-149" target="snmXj4P5MIi6Ag2bhf1i-148">
          <mxGeometry relative="1" as="geometry" />
        </mxCell>
        <mxCell id="snmXj4P5MIi6Ag2bhf1i-149" value="ticker_symbol" style="ellipse;whiteSpace=wrap;html=1;align=center;" vertex="1" parent="1">
          <mxGeometry x="740" y="100" width="100" height="40" as="geometry" />
        </mxCell>
        <mxCell id="snmXj4P5MIi6Ag2bhf1i-154" style="edgeStyle=orthogonalEdgeStyle;rounded=0;orthogonalLoop=1;jettySize=auto;html=1;exitX=0;exitY=0.5;exitDx=0;exitDy=0;entryX=1;entryY=0.5;entryDx=0;entryDy=0;" edge="1" parent="1" source="snmXj4P5MIi6Ag2bhf1i-150" target="snmXj4P5MIi6Ag2bhf1i-148">
          <mxGeometry relative="1" as="geometry" />
        </mxCell>
        <mxCell id="snmXj4P5MIi6Ag2bhf1i-150" value="stock_id" style="ellipse;whiteSpace=wrap;html=1;align=center;fontStyle=4;" vertex="1" parent="1">
          <mxGeometry x="740" y="40" width="100" height="40" as="geometry" />
        </mxCell>
        <mxCell id="snmXj4P5MIi6Ag2bhf1i-156" style="edgeStyle=orthogonalEdgeStyle;rounded=0;orthogonalLoop=1;jettySize=auto;html=1;exitX=0;exitY=0.5;exitDx=0;exitDy=0;" edge="1" parent="1" source="snmXj4P5MIi6Ag2bhf1i-151">
          <mxGeometry relative="1" as="geometry">
            <mxPoint x="660" y="179.66666666666674" as="targetPoint" />
          </mxGeometry>
        </mxCell>
        <mxCell id="snmXj4P5MIi6Ag2bhf1i-151" value="company_name" style="ellipse;whiteSpace=wrap;html=1;align=center;" vertex="1" parent="1">
          <mxGeometry x="740" y="160" width="100" height="40" as="geometry" />
        </mxCell>
        <mxCell id="snmXj4P5MIi6Ag2bhf1i-157" style="edgeStyle=orthogonalEdgeStyle;rounded=0;orthogonalLoop=1;jettySize=auto;html=1;exitX=0;exitY=0.5;exitDx=0;exitDy=0;entryX=1;entryY=0.5;entryDx=0;entryDy=0;" edge="1" parent="1" source="snmXj4P5MIi6Ag2bhf1i-152" target="snmXj4P5MIi6Ag2bhf1i-148">
          <mxGeometry relative="1" as="geometry" />
        </mxCell>
        <mxCell id="snmXj4P5MIi6Ag2bhf1i-152" value="sector" style="ellipse;whiteSpace=wrap;html=1;align=center;" vertex="1" parent="1">
          <mxGeometry x="740" y="220" width="100" height="40" as="geometry" />
        </mxCell>
        <mxCell id="snmXj4P5MIi6Ag2bhf1i-158" style="edgeStyle=orthogonalEdgeStyle;rounded=0;orthogonalLoop=1;jettySize=auto;html=1;exitX=0;exitY=0.5;exitDx=0;exitDy=0;entryX=1;entryY=0.5;entryDx=0;entryDy=0;" edge="1" parent="1" source="snmXj4P5MIi6Ag2bhf1i-153" target="snmXj4P5MIi6Ag2bhf1i-148">
          <mxGeometry relative="1" as="geometry" />
        </mxCell>
        <mxCell id="snmXj4P5MIi6Ag2bhf1i-153" value="market" style="ellipse;whiteSpace=wrap;html=1;align=center;" vertex="1" parent="1">
          <mxGeometry x="740" y="280" width="100" height="40" as="geometry" />
        </mxCell>
        <mxCell id="snmXj4P5MIi6Ag2bhf1i-159" value="Portfolio" style="shape=ext;margin=3;double=1;whiteSpace=wrap;html=1;align=center;" vertex="1" parent="1">
          <mxGeometry x="-18" y="630" width="100" height="40" as="geometry" />
        </mxCell>
        <mxCell id="snmXj4P5MIi6Ag2bhf1i-161" style="edgeStyle=orthogonalEdgeStyle;rounded=0;orthogonalLoop=1;jettySize=auto;html=1;exitX=0.5;exitY=0;exitDx=0;exitDy=0;entryX=0.5;entryY=1;entryDx=0;entryDy=0;" edge="1" parent="1" source="snmXj4P5MIi6Ag2bhf1i-160" target="snmXj4P5MIi6Ag2bhf1i-137">
          <mxGeometry relative="1" as="geometry" />
        </mxCell>
        <mxCell id="snmXj4P5MIi6Ag2bhf1i-204" style="edgeStyle=orthogonalEdgeStyle;rounded=0;orthogonalLoop=1;jettySize=auto;html=1;exitX=0.5;exitY=1;exitDx=0;exitDy=0;shape=link;" edge="1" parent="1" source="snmXj4P5MIi6Ag2bhf1i-160" target="snmXj4P5MIi6Ag2bhf1i-159">
          <mxGeometry relative="1" as="geometry" />
        </mxCell>
        <mxCell id="snmXj4P5MIi6Ag2bhf1i-160" value="hasPortfolio" style="shape=rhombus;perimeter=rhombusPerimeter;whiteSpace=wrap;html=1;align=center;" vertex="1" parent="1">
          <mxGeometry x="-28" y="460" width="120" height="60" as="geometry" />
        </mxCell>
        <mxCell id="snmXj4P5MIi6Ag2bhf1i-201" style="edgeStyle=orthogonalEdgeStyle;rounded=0;orthogonalLoop=1;jettySize=auto;html=1;exitX=1;exitY=0.5;exitDx=0;exitDy=0;entryX=0;entryY=0.5;entryDx=0;entryDy=0;" edge="1" parent="1" source="snmXj4P5MIi6Ag2bhf1i-164" target="snmXj4P5MIi6Ag2bhf1i-159">
          <mxGeometry relative="1" as="geometry" />
        </mxCell>
        <mxCell id="snmXj4P5MIi6Ag2bhf1i-164" value="&lt;u&gt;portfolio_id&lt;/u&gt;" style="ellipse;whiteSpace=wrap;html=1;align=center;" vertex="1" parent="1">
          <mxGeometry x="-170" y="570" width="100" height="40" as="geometry" />
        </mxCell>
        <mxCell id="snmXj4P5MIi6Ag2bhf1i-202" style="edgeStyle=orthogonalEdgeStyle;rounded=0;orthogonalLoop=1;jettySize=auto;html=1;exitX=1;exitY=0.5;exitDx=0;exitDy=0;entryX=0;entryY=0.5;entryDx=0;entryDy=0;" edge="1" parent="1" source="snmXj4P5MIi6Ag2bhf1i-166" target="snmXj4P5MIi6Ag2bhf1i-159">
          <mxGeometry relative="1" as="geometry" />
        </mxCell>
        <mxCell id="snmXj4P5MIi6Ag2bhf1i-166" value="quantity" style="ellipse;whiteSpace=wrap;html=1;align=center;" vertex="1" parent="1">
          <mxGeometry x="-170" y="630" width="100" height="40" as="geometry" />
        </mxCell>
        <mxCell id="snmXj4P5MIi6Ag2bhf1i-203" style="edgeStyle=orthogonalEdgeStyle;rounded=0;orthogonalLoop=1;jettySize=auto;html=1;exitX=1;exitY=0.5;exitDx=0;exitDy=0;entryX=0;entryY=0.5;entryDx=0;entryDy=0;" edge="1" parent="1" source="snmXj4P5MIi6Ag2bhf1i-168" target="snmXj4P5MIi6Ag2bhf1i-159">
          <mxGeometry relative="1" as="geometry" />
        </mxCell>
        <mxCell id="snmXj4P5MIi6Ag2bhf1i-168" value="average_price" style="ellipse;whiteSpace=wrap;html=1;align=center;" vertex="1" parent="1">
          <mxGeometry x="-170" y="700" width="100" height="40" as="geometry" />
        </mxCell>
        <mxCell id="snmXj4P5MIi6Ag2bhf1i-172" style="edgeStyle=orthogonalEdgeStyle;rounded=0;orthogonalLoop=1;jettySize=auto;html=1;exitX=0.5;exitY=0;exitDx=0;exitDy=0;entryX=1;entryY=0.5;entryDx=0;entryDy=0;endArrow=none;endFill=0;" edge="1" parent="1" source="snmXj4P5MIi6Ag2bhf1i-171" target="snmXj4P5MIi6Ag2bhf1i-137">
          <mxGeometry relative="1" as="geometry" />
        </mxCell>
        <mxCell id="snmXj4P5MIi6Ag2bhf1i-171" value="hasWatchlist" style="shape=rhombus;perimeter=rhombusPerimeter;whiteSpace=wrap;html=1;align=center;" vertex="1" parent="1">
          <mxGeometry x="170" y="460" width="120" height="60" as="geometry" />
        </mxCell>
        <mxCell id="snmXj4P5MIi6Ag2bhf1i-175" value="" style="edgeStyle=orthogonalEdgeStyle;rounded=0;orthogonalLoop=1;jettySize=auto;html=1;shape=link;" edge="1" parent="1" source="snmXj4P5MIi6Ag2bhf1i-174" target="snmXj4P5MIi6Ag2bhf1i-171">
          <mxGeometry relative="1" as="geometry" />
        </mxCell>
        <mxCell id="snmXj4P5MIi6Ag2bhf1i-174" value="Watchlist" style="shape=ext;margin=3;double=1;whiteSpace=wrap;html=1;align=center;" vertex="1" parent="1">
          <mxGeometry x="180" y="580" width="100" height="40" as="geometry" />
        </mxCell>
        <mxCell id="snmXj4P5MIi6Ag2bhf1i-180" style="edgeStyle=orthogonalEdgeStyle;rounded=0;orthogonalLoop=1;jettySize=auto;html=1;exitX=0.5;exitY=0;exitDx=0;exitDy=0;entryX=0.5;entryY=1;entryDx=0;entryDy=0;" edge="1" parent="1" source="snmXj4P5MIi6Ag2bhf1i-176" target="snmXj4P5MIi6Ag2bhf1i-174">
          <mxGeometry relative="1" as="geometry" />
        </mxCell>
        <mxCell id="snmXj4P5MIi6Ag2bhf1i-176" value="watchlist_id" style="ellipse;whiteSpace=wrap;html=1;align=center;fontStyle=4;" vertex="1" parent="1">
          <mxGeometry x="120" y="690" width="100" height="40" as="geometry" />
        </mxCell>
        <mxCell id="snmXj4P5MIi6Ag2bhf1i-179" style="edgeStyle=orthogonalEdgeStyle;rounded=0;orthogonalLoop=1;jettySize=auto;html=1;exitX=0.5;exitY=0;exitDx=0;exitDy=0;entryX=0.5;entryY=1;entryDx=0;entryDy=0;" edge="1" parent="1" source="snmXj4P5MIi6Ag2bhf1i-178" target="snmXj4P5MIi6Ag2bhf1i-174">
          <mxGeometry relative="1" as="geometry" />
        </mxCell>
        <mxCell id="snmXj4P5MIi6Ag2bhf1i-178" value="date_added" style="ellipse;whiteSpace=wrap;html=1;align=center;" vertex="1" parent="1">
          <mxGeometry x="240" y="690" width="100" height="40" as="geometry" />
        </mxCell>
        <mxCell id="snmXj4P5MIi6Ag2bhf1i-183" value="" style="edgeStyle=orthogonalEdgeStyle;rounded=0;orthogonalLoop=1;jettySize=auto;html=1;shape=link;" edge="1" parent="1" source="snmXj4P5MIi6Ag2bhf1i-181" target="snmXj4P5MIi6Ag2bhf1i-182">
          <mxGeometry relative="1" as="geometry" />
        </mxCell>
        <mxCell id="snmXj4P5MIi6Ag2bhf1i-181" value="&lt;div&gt;hasHistory&lt;/div&gt;" style="shape=rhombus;perimeter=rhombusPerimeter;whiteSpace=wrap;html=1;align=center;" vertex="1" parent="1">
          <mxGeometry x="720" y="460" width="120" height="60" as="geometry" />
        </mxCell>
        <mxCell id="snmXj4P5MIi6Ag2bhf1i-182" value="StockHistory" style="shape=ext;margin=3;double=1;whiteSpace=wrap;html=1;align=center;" vertex="1" parent="1">
          <mxGeometry x="730" y="578" width="100" height="40" as="geometry" />
        </mxCell>
        <mxCell id="snmXj4P5MIi6Ag2bhf1i-211" value="" style="edgeStyle=orthogonalEdgeStyle;rounded=0;orthogonalLoop=1;jettySize=auto;html=1;shape=link;" edge="1" parent="1" source="snmXj4P5MIi6Ag2bhf1i-186" target="snmXj4P5MIi6Ag2bhf1i-207">
          <mxGeometry relative="1" as="geometry" />
        </mxCell>
        <mxCell id="snmXj4P5MIi6Ag2bhf1i-186" value="MarketOrder" style="shape=ext;margin=3;double=1;whiteSpace=wrap;html=1;align=center;" vertex="1" parent="1">
          <mxGeometry x="440" y="580" width="100" height="40" as="geometry" />
        </mxCell>
        <mxCell id="snmXj4P5MIi6Ag2bhf1i-192" style="edgeStyle=orthogonalEdgeStyle;rounded=0;orthogonalLoop=1;jettySize=auto;html=1;exitX=0.5;exitY=0;exitDx=0;exitDy=0;entryX=0.5;entryY=1;entryDx=0;entryDy=0;" edge="1" parent="1" source="snmXj4P5MIi6Ag2bhf1i-191" target="snmXj4P5MIi6Ag2bhf1i-186">
          <mxGeometry relative="1" as="geometry" />
        </mxCell>
        <mxCell id="snmXj4P5MIi6Ag2bhf1i-191" value="&lt;u&gt;order_id&lt;/u&gt;" style="ellipse;whiteSpace=wrap;html=1;align=center;fontStyle=4;" vertex="1" parent="1">
          <mxGeometry x="310" y="730" width="100" height="40" as="geometry" />
        </mxCell>
        <mxCell id="snmXj4P5MIi6Ag2bhf1i-194" style="edgeStyle=orthogonalEdgeStyle;rounded=0;orthogonalLoop=1;jettySize=auto;html=1;exitX=0.5;exitY=0;exitDx=0;exitDy=0;entryX=0.5;entryY=1;entryDx=0;entryDy=0;" edge="1" parent="1" source="snmXj4P5MIi6Ag2bhf1i-193" target="snmXj4P5MIi6Ag2bhf1i-186">
          <mxGeometry relative="1" as="geometry" />
        </mxCell>
        <mxCell id="snmXj4P5MIi6Ag2bhf1i-193" value="order_type" style="ellipse;whiteSpace=wrap;html=1;align=center;" vertex="1" parent="1">
          <mxGeometry x="380" y="690" width="100" height="40" as="geometry" />
        </mxCell>
        <mxCell id="snmXj4P5MIi6Ag2bhf1i-196" style="edgeStyle=orthogonalEdgeStyle;rounded=0;orthogonalLoop=1;jettySize=auto;html=1;exitX=0.5;exitY=0;exitDx=0;exitDy=0;entryX=0.5;entryY=1;entryDx=0;entryDy=0;" edge="1" parent="1" source="snmXj4P5MIi6Ag2bhf1i-195" target="snmXj4P5MIi6Ag2bhf1i-186">
          <mxGeometry relative="1" as="geometry" />
        </mxCell>
        <mxCell id="snmXj4P5MIi6Ag2bhf1i-195" value="quantity" style="ellipse;whiteSpace=wrap;html=1;align=center;" vertex="1" parent="1">
          <mxGeometry x="440" y="730" width="100" height="40" as="geometry" />
        </mxCell>
        <mxCell id="snmXj4P5MIi6Ag2bhf1i-198" style="edgeStyle=orthogonalEdgeStyle;rounded=0;orthogonalLoop=1;jettySize=auto;html=1;exitX=0.5;exitY=0;exitDx=0;exitDy=0;entryX=0.5;entryY=1;entryDx=0;entryDy=0;" edge="1" parent="1" source="snmXj4P5MIi6Ag2bhf1i-197" target="snmXj4P5MIi6Ag2bhf1i-186">
          <mxGeometry relative="1" as="geometry" />
        </mxCell>
        <mxCell id="snmXj4P5MIi6Ag2bhf1i-197" value="price" style="ellipse;whiteSpace=wrap;html=1;align=center;" vertex="1" parent="1">
          <mxGeometry x="510" y="690" width="100" height="40" as="geometry" />
        </mxCell>
        <mxCell id="snmXj4P5MIi6Ag2bhf1i-200" style="edgeStyle=orthogonalEdgeStyle;rounded=0;orthogonalLoop=1;jettySize=auto;html=1;exitX=0.5;exitY=0;exitDx=0;exitDy=0;" edge="1" parent="1" source="snmXj4P5MIi6Ag2bhf1i-199" target="snmXj4P5MIi6Ag2bhf1i-186">
          <mxGeometry relative="1" as="geometry" />
        </mxCell>
        <mxCell id="snmXj4P5MIi6Ag2bhf1i-199" value="order_status" style="ellipse;whiteSpace=wrap;html=1;align=center;" vertex="1" parent="1">
          <mxGeometry x="580" y="730" width="100" height="40" as="geometry" />
        </mxCell>
        <mxCell id="snmXj4P5MIi6Ag2bhf1i-206" style="edgeStyle=orthogonalEdgeStyle;rounded=0;orthogonalLoop=1;jettySize=auto;html=1;exitX=0;exitY=0.5;exitDx=0;exitDy=0;entryX=0.5;entryY=1;entryDx=0;entryDy=0;" edge="1" parent="1" source="snmXj4P5MIi6Ag2bhf1i-205" target="snmXj4P5MIi6Ag2bhf1i-186">
          <mxGeometry relative="1" as="geometry" />
        </mxCell>
        <mxCell id="snmXj4P5MIi6Ag2bhf1i-205" value="timestamp" style="ellipse;whiteSpace=wrap;html=1;align=center;" vertex="1" parent="1">
          <mxGeometry x="580" y="620" width="100" height="40" as="geometry" />
        </mxCell>
        <mxCell id="snmXj4P5MIi6Ag2bhf1i-209" style="edgeStyle=orthogonalEdgeStyle;rounded=0;orthogonalLoop=1;jettySize=auto;html=1;exitX=0;exitY=0;exitDx=0;exitDy=0;entryX=0.75;entryY=1;entryDx=0;entryDy=0;" edge="1" parent="1" source="snmXj4P5MIi6Ag2bhf1i-207" target="snmXj4P5MIi6Ag2bhf1i-137">
          <mxGeometry relative="1" as="geometry">
            <Array as="points">
              <mxPoint x="460" y="380" />
              <mxPoint x="245" y="380" />
            </Array>
          </mxGeometry>
        </mxCell>
        <mxCell id="snmXj4P5MIi6Ag2bhf1i-207" value="hasOrder" style="shape=rhombus;perimeter=rhombusPerimeter;whiteSpace=wrap;html=1;align=center;" vertex="1" parent="1">
          <mxGeometry x="430" y="460" width="120" height="60" as="geometry" />
        </mxCell>
        <mxCell id="snmXj4P5MIi6Ag2bhf1i-208" style="edgeStyle=orthogonalEdgeStyle;rounded=0;orthogonalLoop=1;jettySize=auto;html=1;exitX=0.5;exitY=0;exitDx=0;exitDy=0;entryX=0.8;entryY=0.75;entryDx=0;entryDy=0;entryPerimeter=0;" edge="1" parent="1" source="snmXj4P5MIi6Ag2bhf1i-181" target="snmXj4P5MIi6Ag2bhf1i-148">
          <mxGeometry relative="1" as="geometry" />
        </mxCell>
        <mxCell id="snmXj4P5MIi6Ag2bhf1i-210" style="edgeStyle=orthogonalEdgeStyle;rounded=0;orthogonalLoop=1;jettySize=auto;html=1;exitX=1;exitY=0;exitDx=0;exitDy=0;entryX=0.417;entryY=0.965;entryDx=0;entryDy=0;entryPerimeter=0;" edge="1" parent="1" source="snmXj4P5MIi6Ag2bhf1i-207" target="snmXj4P5MIi6Ag2bhf1i-148">
          <mxGeometry relative="1" as="geometry" />
        </mxCell>
        <mxCell id="snmXj4P5MIi6Ag2bhf1i-219" style="edgeStyle=orthogonalEdgeStyle;rounded=0;orthogonalLoop=1;jettySize=auto;html=1;exitX=0;exitY=0.5;exitDx=0;exitDy=0;entryX=1;entryY=0.5;entryDx=0;entryDy=0;" edge="1" parent="1" source="snmXj4P5MIi6Ag2bhf1i-212" target="snmXj4P5MIi6Ag2bhf1i-182">
          <mxGeometry relative="1" as="geometry" />
        </mxCell>
        <mxCell id="snmXj4P5MIi6Ag2bhf1i-212" value="history_id" style="ellipse;whiteSpace=wrap;html=1;align=center;fontStyle=4;" vertex="1" parent="1">
          <mxGeometry x="880" y="407" width="100" height="40" as="geometry" />
        </mxCell>
        <mxCell id="snmXj4P5MIi6Ag2bhf1i-220" style="edgeStyle=orthogonalEdgeStyle;rounded=0;orthogonalLoop=1;jettySize=auto;html=1;exitX=0;exitY=0.5;exitDx=0;exitDy=0;entryX=1;entryY=0.5;entryDx=0;entryDy=0;" edge="1" parent="1" source="snmXj4P5MIi6Ag2bhf1i-213" target="snmXj4P5MIi6Ag2bhf1i-182">
          <mxGeometry relative="1" as="geometry" />
        </mxCell>
        <mxCell id="snmXj4P5MIi6Ag2bhf1i-213" value="date" style="ellipse;whiteSpace=wrap;html=1;align=center;" vertex="1" parent="1">
          <mxGeometry x="880" y="459" width="100" height="40" as="geometry" />
        </mxCell>
        <mxCell id="snmXj4P5MIi6Ag2bhf1i-221" style="edgeStyle=orthogonalEdgeStyle;rounded=0;orthogonalLoop=1;jettySize=auto;html=1;exitX=0;exitY=0.5;exitDx=0;exitDy=0;entryX=1;entryY=0.5;entryDx=0;entryDy=0;" edge="1" parent="1" source="snmXj4P5MIi6Ag2bhf1i-214" target="snmXj4P5MIi6Ag2bhf1i-182">
          <mxGeometry relative="1" as="geometry" />
        </mxCell>
        <mxCell id="snmXj4P5MIi6Ag2bhf1i-214" value="open" style="ellipse;whiteSpace=wrap;html=1;align=center;" vertex="1" parent="1">
          <mxGeometry x="880" y="513" width="100" height="40" as="geometry" />
        </mxCell>
        <mxCell id="snmXj4P5MIi6Ag2bhf1i-222" style="edgeStyle=orthogonalEdgeStyle;rounded=0;orthogonalLoop=1;jettySize=auto;html=1;exitX=0;exitY=0.5;exitDx=0;exitDy=0;" edge="1" parent="1" source="snmXj4P5MIi6Ag2bhf1i-215" target="snmXj4P5MIi6Ag2bhf1i-182">
          <mxGeometry relative="1" as="geometry" />
        </mxCell>
        <mxCell id="snmXj4P5MIi6Ag2bhf1i-215" value="close" style="ellipse;whiteSpace=wrap;html=1;align=center;" vertex="1" parent="1">
          <mxGeometry x="880" y="573" width="100" height="40" as="geometry" />
        </mxCell>
        <mxCell id="snmXj4P5MIi6Ag2bhf1i-223" style="edgeStyle=orthogonalEdgeStyle;rounded=0;orthogonalLoop=1;jettySize=auto;html=1;exitX=0;exitY=0.5;exitDx=0;exitDy=0;entryX=1;entryY=0.5;entryDx=0;entryDy=0;" edge="1" parent="1" source="snmXj4P5MIi6Ag2bhf1i-216" target="snmXj4P5MIi6Ag2bhf1i-182">
          <mxGeometry relative="1" as="geometry" />
        </mxCell>
        <mxCell id="snmXj4P5MIi6Ag2bhf1i-216" value="high" style="ellipse;whiteSpace=wrap;html=1;align=center;" vertex="1" parent="1">
          <mxGeometry x="880" y="633" width="100" height="40" as="geometry" />
        </mxCell>
        <mxCell id="snmXj4P5MIi6Ag2bhf1i-225" style="edgeStyle=orthogonalEdgeStyle;rounded=0;orthogonalLoop=1;jettySize=auto;html=1;exitX=0;exitY=0.5;exitDx=0;exitDy=0;entryX=1;entryY=0.5;entryDx=0;entryDy=0;" edge="1" parent="1" source="snmXj4P5MIi6Ag2bhf1i-217" target="snmXj4P5MIi6Ag2bhf1i-182">
          <mxGeometry relative="1" as="geometry" />
        </mxCell>
        <mxCell id="snmXj4P5MIi6Ag2bhf1i-217" value="low" style="ellipse;whiteSpace=wrap;html=1;align=center;" vertex="1" parent="1">
          <mxGeometry x="880" y="693" width="100" height="40" as="geometry" />
        </mxCell>
        <mxCell id="snmXj4P5MIi6Ag2bhf1i-226" style="edgeStyle=orthogonalEdgeStyle;rounded=0;orthogonalLoop=1;jettySize=auto;html=1;exitX=0;exitY=0.5;exitDx=0;exitDy=0;entryX=1;entryY=0.5;entryDx=0;entryDy=0;" edge="1" parent="1" source="snmXj4P5MIi6Ag2bhf1i-218" target="snmXj4P5MIi6Ag2bhf1i-182">
          <mxGeometry relative="1" as="geometry" />
        </mxCell>
        <mxCell id="snmXj4P5MIi6Ag2bhf1i-218" value="low" style="ellipse;whiteSpace=wrap;html=1;align=center;" vertex="1" parent="1">
          <mxGeometry x="880" y="753" width="100" height="40" as="geometry" />
        </mxCell>
      </root>
    </mxGraphModel>
  </diagram>
</mxfile>
